<svg xmlns="http://www.w3.org/2000/svg" style="display: none;">
    <symbol id="icon-cart" viewBox="0 0 24 24">
        <path d="M7 18c-1.104 0-1.99.896-1.99 2s.886 2 1.99 2 2-.896 2-2-.896-2-2-2zm10 0c-1.104 0-1.99.896-1.99 2s.886 2 1.99 2 2-.896 2-2-.896-2-2-2zm1.83-12.414l-1.34 5.364c-.14.56-.676.95-1.26.95h-7.66l-.34-1h6.66l1.02-4h-9.68l-.34-1h10.68c.55 0 1.03.37 1.19.914z"/>
    </symbol>
    <symbol id="search-icon" viewBox="0 0 24 24">
        <path d="M21.71 20.29l-3.388-3.388a8.5 8.5 0 1 0-1.414 1.414l3.388 3.388a1 1 0 0 0 1.414-1.414zM10.5 18a7.5 7.5 0 1 1 0-15 7.5 7.5 0 0 1 0 15z"/>
    </symbol>
    <symbol id="filter-icon" viewBox="0 0 24 24">
        <path d="M3 4h18v2l-7 8v6l-4 2v-8L3 6V4z"/>
    </symbol>
    <symbol id="logout-icon" viewBox="0 0 24 24">
        <rect x="3" y="5" width="10" height="14" rx="2.2" fill="none" stroke="currentColor" stroke-width="1.6" stroke-linejoin="round" stroke-linecap="round"/>
        <path d="M13 8v8" fill="none" stroke="currentColor" stroke-width="1.6" stroke-linecap="round" stroke-linejoin="round"/>
        <path d="M13 12h4" fill="none" stroke="currentColor" stroke-width="1.6" stroke-linecap="round" stroke-linejoin="round"/>
        <path d="M17 8l4 4-4 4" fill="none" stroke="currentColor" stroke-width="1.6" stroke-linecap="round" stroke-linejoin="round"/>
    </symbol>
    <symbol id="trash-icon" viewBox="0 0 24 24">
        <path d="M9 3h6" fill="none" stroke="currentColor" stroke-width="1.6" stroke-linecap="round" stroke-linejoin="round"/>
        <path d="M3 6h18" fill="none" stroke="currentColor" stroke-width="1.6" stroke-linecap="round" stroke-linejoin="round"/>
        <path d="M6 6l1 13a2 2 0 0 0 2 2h6a2 2 0 0 0 2-2l1-13" fill="none" stroke="currentColor" stroke-width="1.6" stroke-linecap="round" stroke-linejoin="round"/>
        <path d="M10 11v6" fill="none" stroke="currentColor" stroke-width="1.6" stroke-linecap="round" stroke-linejoin="round"/>
        <path d="M14 11v6" fill="none" stroke="currentColor" stroke-width="1.6" stroke-linecap="round" stroke-linejoin="round"/>
    </symbol>
</svg>