<svg xmlns="http://www.w3.org/2000/svg" style="display: none;">
    <symbol id="icon-cart" viewBox="0 0 24 24">
        <path d="M7 18c-1.104 0-1.99.896-1.99 2s.886 2 1.99 2 2-.896 2-2-.896-2-2-2zm10 0c-1.104 0-1.99.896-1.99 2s.886 2 1.99 2 2-.896 2-2-.896-2-2-2zm1.83-12.414l-1.34 5.364c-.14.56-.676.95-1.26.95h-7.66l-.34-1h6.66l1.02-4h-9.68l-.34-1h10.68c.55 0 1.03.37 1.19.914z"/>
    </symbol>
    <symbol id="search-icon" viewBox="0 0 24 24">
        <path d="M21.71 20.29l-3.388-3.388a8.5 8.5 0 1 0-1.414 1.414l3.388 3.388a1 1 0 0 0 1.414-1.414zM10.5 18a7.5 7.5 0 1 1 0-15 7.5 7.5 0 0 1 0 15z"/>
    </symbol>
</svg>